<svg width="51" height="10" viewBox="0 0 51 10" fill="none" xmlns="http://www.w3.org/2000/svg">
<path d="M3.00586 7.08398L4.70508 0.46875H5.5957L5.49609 2.17383L3.67969 9H2.75391L3.00586 7.08398ZM1.73438 0.46875L3.11133 7.03125L3.23438 9H2.25L0.275391 0.46875H1.73438ZM7.52344 7.01367L8.88281 0.46875H10.3477L8.37305 9H7.38867L7.52344 7.01367ZM5.94141 0.46875L7.62305 7.10156L7.86914 9H6.94336L5.15625 2.17383L5.0625 0.46875H5.94141ZM14.6719 7.72852V4.70508C14.6719 4.47852 14.6309 4.2832 14.5488 4.11914C14.4668 3.95508 14.3418 3.82812 14.1738 3.73828C14.0098 3.64844 13.8027 3.60352 13.5527 3.60352C13.3223 3.60352 13.123 3.64258 12.9551 3.7207C12.7871 3.79883 12.6562 3.9043 12.5625 4.03711C12.4688 4.16992 12.4219 4.32031 12.4219 4.48828H11.0156C11.0156 4.23828 11.0762 3.99609 11.1973 3.76172C11.3184 3.52734 11.4941 3.31836 11.7246 3.13477C11.9551 2.95117 12.2305 2.80664 12.5508 2.70117C12.8711 2.5957 13.2305 2.54297 13.6289 2.54297C14.1055 2.54297 14.5273 2.62305 14.8945 2.7832C15.2656 2.94336 15.5566 3.18555 15.7676 3.50977C15.9824 3.83008 16.0898 4.23242 16.0898 4.7168V7.53516C16.0898 7.82422 16.1094 8.08398 16.1484 8.31445C16.1914 8.54102 16.252 8.73828 16.3301 8.90625V9H14.8828C14.8164 8.84766 14.7637 8.6543 14.7246 8.41992C14.6895 8.18164 14.6719 7.95117 14.6719 7.72852ZM14.877 5.14453L14.8887 6.01758H13.875C13.6133 6.01758 13.3828 6.04297 13.1836 6.09375C12.9844 6.14062 12.8184 6.21094 12.6855 6.30469C12.5527 6.39844 12.4531 6.51172 12.3867 6.64453C12.3203 6.77734 12.2871 6.92773 12.2871 7.0957C12.2871 7.26367 12.3262 7.41797 12.4043 7.55859C12.4824 7.69531 12.5957 7.80273 12.7441 7.88086C12.8965 7.95898 13.0801 7.99805 13.2949 7.99805C13.584 7.99805 13.8359 7.93945 14.0508 7.82227C14.2695 7.70117 14.4414 7.55469 14.5664 7.38281C14.6914 7.20703 14.7578 7.04102 14.7656 6.88477L15.2227 7.51172C15.1758 7.67188 15.0957 7.84375 14.9824 8.02734C14.8691 8.21094 14.7207 8.38672 14.5371 8.55469C14.3574 8.71875 14.1406 8.85352 13.8867 8.95898C13.6367 9.06445 13.3477 9.11719 13.0195 9.11719C12.6055 9.11719 12.2363 9.03516 11.9121 8.87109C11.5879 8.70312 11.334 8.47852 11.1504 8.19727C10.9668 7.91211 10.875 7.58984 10.875 7.23047C10.875 6.89453 10.9375 6.59766 11.0625 6.33984C11.1914 6.07812 11.3789 5.85938 11.625 5.68359C11.875 5.50781 12.1797 5.375 12.5391 5.28516C12.8984 5.19141 13.3086 5.14453 13.7695 5.14453H14.877ZM20.4727 2.66016V3.69141H16.8984V2.66016H20.4727ZM17.9297 1.10742H19.3418V7.24805C19.3418 7.44336 19.3691 7.59375 19.4238 7.69922C19.4824 7.80078 19.5625 7.86914 19.6641 7.9043C19.7656 7.93945 19.8848 7.95703 20.0215 7.95703C20.1191 7.95703 20.2129 7.95117 20.3027 7.93945C20.3926 7.92773 20.4648 7.91602 20.5195 7.9043L20.5254 8.98242C20.4082 9.01758 20.2715 9.04883 20.1152 9.07617C19.9629 9.10352 19.7871 9.11719 19.5879 9.11719C19.2637 9.11719 18.9766 9.06055 18.7266 8.94727C18.4766 8.83008 18.2812 8.64062 18.1406 8.37891C18 8.11719 17.9297 7.76953 17.9297 7.33594V1.10742ZM24.1523 7.99219C24.3828 7.99219 24.5898 7.94727 24.7734 7.85742C24.9609 7.76367 25.1113 7.63477 25.2246 7.4707C25.3418 7.30664 25.4062 7.11719 25.418 6.90234H26.748C26.7402 7.3125 26.6191 7.68555 26.3848 8.02148C26.1504 8.35742 25.8398 8.625 25.4531 8.82422C25.0664 9.01953 24.6387 9.11719 24.1699 9.11719C23.6855 9.11719 23.2637 9.03516 22.9043 8.87109C22.5449 8.70312 22.2461 8.47266 22.0078 8.17969C21.7695 7.88672 21.5898 7.54883 21.4688 7.16602C21.3516 6.7832 21.293 6.37305 21.293 5.93555V5.73047C21.293 5.29297 21.3516 4.88281 21.4688 4.5C21.5898 4.11328 21.7695 3.77344 22.0078 3.48047C22.2461 3.1875 22.5449 2.95898 22.9043 2.79492C23.2637 2.62695 23.6836 2.54297 24.1641 2.54297C24.6719 2.54297 25.1172 2.64453 25.5 2.84766C25.8828 3.04688 26.1836 3.32617 26.4023 3.68555C26.625 4.04102 26.7402 4.45508 26.748 4.92773H25.418C25.4062 4.69336 25.3477 4.48242 25.2422 4.29492C25.1406 4.10352 24.9961 3.95117 24.8086 3.83789C24.625 3.72461 24.4043 3.66797 24.1465 3.66797C23.8613 3.66797 23.625 3.72656 23.4375 3.84375C23.25 3.95703 23.1035 4.11328 22.998 4.3125C22.8926 4.50781 22.8164 4.72852 22.7695 4.97461C22.7266 5.2168 22.7051 5.46875 22.7051 5.73047V5.93555C22.7051 6.19727 22.7266 6.45117 22.7695 6.69727C22.8125 6.94336 22.8867 7.16406 22.9922 7.35938C23.1016 7.55078 23.25 7.70508 23.4375 7.82227C23.625 7.93555 23.8633 7.99219 24.1523 7.99219ZM29.2266 0V9H27.8203V0H29.2266ZM28.9805 5.5957L28.5234 5.58984C28.5273 5.15234 28.5879 4.74805 28.7051 4.37695C28.8262 4.00586 28.9941 3.68359 29.209 3.41016C29.4277 3.13281 29.6895 2.91992 29.9941 2.77148C30.2988 2.61914 30.6367 2.54297 31.0078 2.54297C31.3203 2.54297 31.6016 2.58594 31.8516 2.67188C32.1055 2.75781 32.3242 2.89648 32.5078 3.08789C32.6914 3.27539 32.8301 3.52148 32.9238 3.82617C33.0215 4.12695 33.0703 4.49414 33.0703 4.92773V9H31.6523V4.91602C31.6523 4.61133 31.6074 4.36914 31.5176 4.18945C31.4316 4.00977 31.3047 3.88086 31.1367 3.80273C30.9688 3.7207 30.7637 3.67969 30.5215 3.67969C30.2676 3.67969 30.043 3.73047 29.8477 3.83203C29.6562 3.93359 29.4961 4.07227 29.3672 4.24805C29.2383 4.42383 29.1406 4.62695 29.0742 4.85742C29.0117 5.08789 28.9805 5.33398 28.9805 5.5957Z" fill="#1F2229"/>
<path d="M35.3379 0.46875H36.8262L39.0176 6.73242L41.209 0.46875H42.6973L39.6152 9H38.4199L35.3379 0.46875ZM34.5352 0.46875H36.0176L36.2871 6.57422V9H34.5352V0.46875ZM42.0176 0.46875H43.5059V9H41.748V6.57422L42.0176 0.46875ZM47.8594 9.11719C47.3672 9.11719 46.9258 9.03906 46.5352 8.88281C46.1445 8.72266 45.8125 8.50195 45.5391 8.2207C45.2695 7.93945 45.0625 7.61328 44.918 7.24219C44.7734 6.86719 44.7012 6.46875 44.7012 6.04688V5.8125C44.7012 5.33203 44.7695 4.89258 44.9062 4.49414C45.043 4.0957 45.2383 3.75 45.4922 3.45703C45.75 3.16406 46.0625 2.93945 46.4297 2.7832C46.7969 2.62305 47.2109 2.54297 47.6719 2.54297C48.1211 2.54297 48.5195 2.61719 48.8672 2.76562C49.2148 2.91406 49.5059 3.125 49.7402 3.39844C49.9785 3.67188 50.1582 4 50.2793 4.38281C50.4004 4.76172 50.4609 5.18359 50.4609 5.64844V6.35156H45.4219V5.22656H48.8027V5.09766C48.8027 4.86328 48.7598 4.6543 48.6738 4.4707C48.5918 4.2832 48.4668 4.13477 48.2988 4.02539C48.1309 3.91602 47.916 3.86133 47.6543 3.86133C47.4316 3.86133 47.2402 3.91016 47.0801 4.00781C46.9199 4.10547 46.7891 4.24219 46.6875 4.41797C46.5898 4.59375 46.5156 4.80078 46.4648 5.03906C46.418 5.27344 46.3945 5.53125 46.3945 5.8125V6.04688C46.3945 6.30078 46.4297 6.53516 46.5 6.75C46.5742 6.96484 46.6777 7.15039 46.8105 7.30664C46.9473 7.46289 47.1113 7.58398 47.3027 7.66992C47.498 7.75586 47.7188 7.79883 47.9648 7.79883C48.2695 7.79883 48.5527 7.74023 48.8145 7.62305C49.0801 7.50195 49.3086 7.32031 49.5 7.07812L50.3203 7.96875C50.1875 8.16016 50.0059 8.34375 49.7754 8.51953C49.5488 8.69531 49.2754 8.83984 48.9551 8.95312C48.6348 9.0625 48.2695 9.11719 47.8594 9.11719Z" fill="#FAE800"/>
</svg>
